<?xml version="1.0" standalone="no"?>
<!DOCTYPE svg PUBLIC "-//W3C//DTD SVG 20010904//EN"
 "http://www.w3.org/TR/2001/REC-SVG-20010904/DTD/svg10.dtd">
<svg version="1.0" xmlns="http://www.w3.org/2000/svg"
 width="834.000000pt" height="834.000000pt" viewBox="0 0 834.000000 834.000000"
 preserveAspectRatio="xMidYMid meet">

<g transform="translate(0.000000,834.000000) scale(0.100000,-0.100000)"
fill="#000000" stroke="none">
<path d="M4420 6370 c-52 -16 -160 -46 -239 -67 l-144 -40 185 -106 c101 -59
189 -107 195 -107 5 0 25 51 43 113 18 61 40 140 50 175 10 34 16 62 12 61 -4
-1 -50 -14 -102 -29z"/>
<path d="M3487 6109 c-230 -64 -420 -119 -421 -121 -7 -10 -64 -148 -62 -148
2 0 145 40 317 89 173 49 361 102 418 118 l104 28 34 74 c19 40 32 74 31 75
-2 1 -191 -50 -421 -115z"/>
<path d="M3962 6168 c-11 -29 -61 -147 -111 -262 -50 -115 -89 -211 -87 -213
3 -4 254 65 770 211 10 2 -528 316 -542 316 -5 0 -18 -24 -30 -52z"/>
<path d="M5035 5994 c-66 -19 -169 -48 -230 -64 -60 -17 -326 -90 -590 -164
l-479 -134 -28 -62 c-16 -35 -26 -65 -24 -68 4 -4 1046 285 1368 379 55 16 68
24 76 47 6 15 17 44 26 65 9 20 13 37 9 36 -5 0 -62 -16 -128 -35z"/>
<path d="M2297 4570 c-4 -101 -7 -438 -6 -749 l0 -566 83 -165 83 -164 8 745
7 745 -84 169 -85 168 -6 -183z"/>
<path d="M5700 4388 c0 -84 -3 -284 -7 -444 l-6 -292 144 -96 144 -96 3 442
c2 346 -1 445 -10 454 -7 6 -70 50 -140 98 l-128 87 0 -153z"/>
<path d="M2911 4035 l0 -440 83 -164 83 -164 6 228 c4 126 7 319 6 429 l0 201
-89 175 -89 175 0 -440z"/>
<path d="M2502 3930 l3 -434 270 -127 c149 -70 271 -126 273 -125 3 4 -142
303 -357 735 l-191 384 2 -433z"/>
<path d="M4696 4209 c-3 -17 -6 -365 -6 -773 l1 -741 138 -91 138 -92 6 541
c4 297 7 645 7 772 l0 232 -132 89 c-73 49 -136 90 -139 92 -4 1 -9 -11 -13
-29z"/>
<path d="M5030 3585 l0 -443 108 32 c558 168 792 241 792 246 0 3 -69 51 -153
106 -83 56 -286 192 -449 302 l-298 201 0 -444z"/>
<path d="M5651 3284 c-167 -51 -305 -94 -306 -96 -4 -4 619 -368 628 -368 4 0
7 126 7 280 0 218 -3 280 -12 279 -7 -1 -150 -43 -317 -95z"/>
<path d="M2733 3278 c24 -46 109 -204 187 -353 78 -148 146 -274 151 -280 6
-5 8 103 7 264 l-3 274 -189 88 c-105 49 -192 89 -194 89 -2 0 16 -37 41 -82z"/>
</g>
</svg>
